<svg xmlns="http://www.w3.org/2000/svg" version="1.1" xmlns:xlink="http://www.w3.org/1999/xlink" width="1000" height="1000"><g clip-path="url(#SvgjsClipPath1118)"><rect width="1000" height="1000" fill="#000000"></rect><g transform="matrix(6.25,0,0,6.25,100,100)"><svg xmlns="http://www.w3.org/2000/svg" version="1.1" xmlns:xlink="http://www.w3.org/1999/xlink" width="128" height="128"><svg xmlns="http://www.w3.org/2000/svg" version="1.1" xmlns:xlink="http://www.w3.org/1999/xlink" xmlns:svgjs="http://svgjs.dev/svgjs" width="128" height="128" viewBox="0 0 128 128"><g transform="matrix(0.8046875,0,0,0.8046875,11.647896449999983,21.38150667672602)"><svg viewBox="0 0 60 49" data-background-color="#42cd9e" preserveAspectRatio="xMidYMid meet" height="104" width="128" xmlns="http://www.w3.org/2000/svg" xmlns:xlink="http://www.w3.org/1999/xlink"><g id="tight-bounds" transform="matrix(1,0,0,1,0.49637100000001055,0.4536211840528779)"><svg viewBox="0 0 59.00725799999999 47.94518436930058" height="47.94518436930058" width="59.00725799999999"><g><svg viewBox="0 0 59.00725799999999 47.94518436930058" height="47.94518436930058" width="59.00725799999999"><g><svg viewBox="0 0 59.00725799999999 47.94518436930058" height="47.94518436930058" width="59.00725799999999"><g><svg viewBox="0 0 59.00725799999999 47.94518436930058" height="47.94518436930058" width="59.00725799999999"><g id="textblocktransform"><svg viewBox="0 0 59.00725799999999 47.94518436930058" height="47.94518436930058" width="59.00725799999999" id="textblock"><g><svg viewBox="0 0 59.00725799999999 47.94518436930058" height="47.94518436930058" width="59.00725799999999"><g><svg viewBox="0 0 59.00725799999999 47.94518436930058" height="47.94518436930058" width="59.00725799999999"><g><svg xmlns="http://www.w3.org/2000/svg" xmlns:xlink="http://www.w3.org/1999/xlink" version="1.1" x="0" y="0" viewBox="0 4.5 48 39.00145385041325" style="enable-background:new 0 0 48 48;" xml:space="preserve" height="47.94518436930058" width="59.00725799999999" class="icon-icon-0" data-fill-palette-color="accent" id="icon-0"><path d="M29.707 35.793C29.669 35.756 29.622 35.739 29.58 35.709A6.96 6.96 0 0 0 31 31.5C31 27.641 27.859 24.5 24 24.5S17 27.641 17 31.5 20.14 38.5 24 38.5A6.95 6.95 0 0 0 28.208 37.08C28.238 37.121 28.255 37.17 28.292 37.207L34.292 43.207A0.996 0.996 0 0 0 35.706 43.207 0.997 0.997 0 0 0 35.706 41.793zM24 36.5C21.243 36.5 19 34.257 19 31.5S21.243 26.5 24 26.5 29 28.743 29 31.5 26.757 36.5 24 36.5M48 29.5C48 34.463 43.962 38.5 39 38.5H35.242L32.117 35.375A8.9 8.9 0 0 0 32.999 31.5C32.999 26.537 28.961 22.5 23.999 22.5S14.999 26.537 14.999 31.5A8.98 8.98 0 0 0 18.354 38.5H12C5.383 38.5 0 33.117 0 26.5 0 20.203 4.875 15.023 11.05 14.537 11.698 8.311 18.591 4.5 25 4.5 33.271 4.5 40 11.678 40 20.5V20.557C44.494 21.055 48 24.875 48 29.5" fill="#FFFFFF" data-fill-palette-color="accent"></path></svg></g></svg></g></svg></g></svg></g></svg></g></svg></g></svg></g><defs><clipPath id="SvgjsClipPath1118"><rect width="1000" height="1000" x="0" y="0" rx="500" ry="500"></rect></clipPath></defs></svg><rect width="59.00725799999999" height="47.94518436930058" fill="none" stroke="none" visibility="hidden"></rect></g></svg></g></svg></svg></g></g></svg>